<?xml version="1.0" encoding="UTF-8" standalone="no"?>
<!DOCTYPE svg PUBLIC "-//W3C//DTD SVG 1.1//EN"
 "http://www.w3.org/Graphics/SVG/1.1/DTD/svg11.dtd">
<!-- Generated by graphviz version 2.43.0 (0)
 -->
<!-- Title: chiprl Pages: 1 -->
<svg width="1359pt" height="289pt"
 viewBox="0.00 0.00 1359.20 289.20" xmlns="http://www.w3.org/2000/svg" xmlns:xlink="http://www.w3.org/1999/xlink">
<g id="graph0" class="graph" transform="scale(1 1) rotate(0) translate(21.6 267.6)">
<title>chiprl</title>
<polygon fill="#fcfcfb" stroke="transparent" points="-21.6,21.6 -21.6,-267.6 1337.6,-267.6 1337.6,21.6 -21.6,21.6"/>
<g id="clust1" class="cluster">
<title>cluster_agents</title>
<path fill="#fcfcfb" stroke="#e1e0d9" d="M12,-8C12,-8 257,-8 257,-8 263,-8 269,-14 269,-20 269,-20 269,-226 269,-226 269,-232 263,-238 257,-238 257,-238 12,-238 12,-238 6,-238 0,-232 0,-226 0,-226 0,-20 0,-20 0,-14 6,-8 12,-8"/>
<text text-anchor="middle" x="134.5" y="-225.2" font-family="DejaVu Sans" font-size="11.00" fill="#52514e">Proposers (same budget, same seed designs)</text>
</g>
<g id="clust2" class="cluster">
<title>cluster_eval</title>
<path fill="#fcfcfb" stroke="#e1e0d9" d="M427,-22C427,-22 940,-22 940,-22 946,-22 952,-28 952,-34 952,-34 952,-155 952,-155 952,-161 946,-167 940,-167 940,-167 427,-167 427,-167 421,-167 415,-161 415,-155 415,-155 415,-34 415,-34 415,-28 421,-22 427,-22"/>
<text text-anchor="middle" x="683.5" y="-29.2" font-family="DejaVu Sans" font-size="11.00" fill="#52514e">evaluate(): verify first, then measure</text>
</g>
<!-- agents -->
<g id="node1" class="node">
<title>agents</title>
<path fill="#ffffff" stroke="#c3c2b7" d="M205,-210C205,-210 64,-210 64,-210 58,-210 52,-204 52,-198 52,-198 52,-174 52,-174 52,-168 58,-162 64,-162 64,-162 205,-162 205,-162 211,-162 217,-168 217,-174 217,-174 217,-198 217,-198 217,-204 211,-210 205,-210"/>
<text text-anchor="middle" x="134.5" y="-195.6" font-family="DejaVu Sans" font-size="10.50" fill="#0b0b0b">Claude agent</text>
<text text-anchor="middle" x="134.5" y="-183.6" font-family="DejaVu Sans" font-size="10.50" fill="#0b0b0b">(tool use: simulate, prove,</text>
<text text-anchor="middle" x="134.5" y="-171.6" font-family="DejaVu Sans" font-size="10.50" fill="#0b0b0b">estimate, place_and_route)</text>
</g>
<!-- rtl -->
<g id="node4" class="node">
<title>rtl</title>
<path fill="#cde2fb" stroke="#2a78d6" d="M379,-131C379,-131 305,-131 305,-131 299,-131 293,-125 293,-119 293,-119 293,-107 293,-107 293,-101 299,-95 305,-95 305,-95 379,-95 379,-95 385,-95 391,-101 391,-107 391,-107 391,-119 391,-119 391,-125 385,-131 379,-131"/>
<text text-anchor="middle" x="342" y="-116.6" font-family="DejaVu Sans" font-size="10.50" fill="#0b0b0b">Candidate RTL</text>
<text text-anchor="middle" x="342" y="-104.6" font-family="DejaVu Sans" font-size="10.50" fill="#0b0b0b">(Verilog)</text>
</g>
<!-- agents&#45;&gt;rtl -->
<g id="edge1" class="edge">
<title>agents&#45;&gt;rtl</title>
<path fill="none" stroke="#898781" stroke-width="1.1" d="M213,-161.81C213,-142.62 213,-119 213,-119 213,-119 285.86,-119 285.86,-119"/>
<polygon fill="#898781" stroke="#898781" stroke-width="1.1" points="285.86,-121.45 292.86,-119 285.86,-116.55 285.86,-121.45"/>
</g>
<!-- rl -->
<g id="node2" class="node">
<title>rl</title>
<path fill="#ffffff" stroke="#c3c2b7" d="M193,-137C193,-137 76,-137 76,-137 70,-137 64,-131 64,-125 64,-125 64,-101 64,-101 64,-95 70,-89 76,-89 76,-89 193,-89 193,-89 199,-89 205,-95 205,-101 205,-101 205,-125 205,-125 205,-131 199,-137 193,-137"/>
<text text-anchor="middle" x="134.5" y="-122.6" font-family="DejaVu Sans" font-size="10.50" fill="#0b0b0b">RL policies</text>
<text text-anchor="middle" x="134.5" y="-110.6" font-family="DejaVu Sans" font-size="10.50" fill="#0b0b0b">(REINFORCE v1, v2, v3,</text>
<text text-anchor="middle" x="134.5" y="-98.6" font-family="DejaVu Sans" font-size="10.50" fill="#0b0b0b">learned local edits)</text>
</g>
<!-- rl&#45;&gt;rtl -->
<g id="edge2" class="edge">
<title>rl&#45;&gt;rtl</title>
<path fill="none" stroke="#898781" stroke-width="1.1" d="M205.04,-107C205.04,-107 285.91,-107 285.91,-107"/>
<polygon fill="#898781" stroke="#898781" stroke-width="1.1" points="285.91,-109.45 292.91,-107 285.91,-104.55 285.91,-109.45"/>
</g>
<!-- search -->
<g id="node3" class="node">
<title>search</title>
<path fill="#ffffff" stroke="#c3c2b7" d="M195.5,-64C195.5,-64 73.5,-64 73.5,-64 67.5,-64 61.5,-58 61.5,-52 61.5,-52 61.5,-28 61.5,-28 61.5,-22 67.5,-16 73.5,-16 73.5,-16 195.5,-16 195.5,-16 201.5,-16 207.5,-22 207.5,-28 207.5,-28 207.5,-52 207.5,-52 207.5,-58 201.5,-64 195.5,-64"/>
<text text-anchor="middle" x="134.5" y="-49.6" font-family="DejaVu Sans" font-size="10.50" fill="#0b0b0b">Baselines</text>
<text text-anchor="middle" x="134.5" y="-37.6" font-family="DejaVu Sans" font-size="10.50" fill="#0b0b0b">(random, evolution,</text>
<text text-anchor="middle" x="134.5" y="-25.6" font-family="DejaVu Sans" font-size="10.50" fill="#0b0b0b">frozen policies, sweeps)</text>
</g>
<!-- search&#45;&gt;rtl -->
<g id="edge3" class="edge">
<title>search&#45;&gt;rtl</title>
<path fill="none" stroke="#898781" stroke-width="1.1" d="M207.66,-57C267.4,-57 342,-57 342,-57 342,-57 342,-87.97 342,-87.97"/>
<polygon fill="#898781" stroke="#898781" stroke-width="1.1" points="339.55,-87.97 342,-94.97 344.45,-87.97 339.55,-87.97"/>
</g>
<!-- sim -->
<g id="node5" class="node">
<title>sim</title>
<path fill="#ffffff" stroke="#c3c2b7" d="M537,-137C537,-137 435,-137 435,-137 429,-137 423,-131 423,-125 423,-125 423,-101 423,-101 423,-95 429,-89 435,-89 435,-89 537,-89 537,-89 543,-89 549,-95 549,-101 549,-101 549,-125 549,-125 549,-131 543,-137 537,-137"/>
<text text-anchor="middle" x="486" y="-122.6" font-family="DejaVu Sans" font-size="10.50" fill="#0b0b0b">Verilator</text>
<text text-anchor="middle" x="486" y="-110.6" font-family="DejaVu Sans" font-size="10.50" fill="#0b0b0b">10,000 transactions</text>
<text text-anchor="middle" x="486" y="-98.6" font-family="DejaVu Sans" font-size="10.50" fill="#0b0b0b">+ protocol checks</text>
</g>
<!-- rtl&#45;&gt;sim -->
<g id="edge4" class="edge">
<title>rtl&#45;&gt;sim</title>
<path fill="none" stroke="#898781" stroke-width="1.1" d="M391.15,-113C391.15,-113 415.81,-113 415.81,-113"/>
<polygon fill="#898781" stroke="#898781" stroke-width="1.1" points="415.81,-115.45 422.81,-113 415.81,-110.55 415.81,-115.45"/>
</g>
<!-- formal -->
<g id="node6" class="node">
<title>formal</title>
<path fill="#ffffff" stroke="#c3c2b7" d="M726,-115C726,-115 593,-115 593,-115 587,-115 581,-109 581,-103 581,-103 581,-79 581,-79 581,-73 587,-67 593,-67 593,-67 726,-67 726,-67 732,-67 738,-73 738,-79 738,-79 738,-103 738,-103 738,-109 732,-115 726,-115"/>
<text text-anchor="middle" x="659.5" y="-100.6" font-family="DejaVu Sans" font-size="10.50" fill="#0b0b0b">Yosys sequential</text>
<text text-anchor="middle" x="659.5" y="-88.6" font-family="DejaVu Sans" font-size="10.50" fill="#0b0b0b">equivalence vs reference</text>
<text text-anchor="middle" x="659.5" y="-76.6" font-family="DejaVu Sans" font-size="10.50" fill="#0b0b0b">(cut&#45;point decomposition)</text>
</g>
<!-- sim&#45;&gt;formal -->
<g id="edge5" class="edge">
<title>sim&#45;&gt;formal</title>
<path fill="none" stroke="#898781" stroke-width="1.1" d="M549.13,-102C549.13,-102 573.74,-102 573.74,-102"/>
<polygon fill="#898781" stroke="#898781" stroke-width="1.1" points="573.74,-104.45 580.74,-102 573.74,-99.55 573.74,-104.45"/>
<text text-anchor="middle" x="571.93" y="-94.8" font-family="DejaVu Sans" font-size="9.00" fill="#52514e">pass</text>
</g>
<!-- reject -->
<g id="node8" class="node">
<title>reject</title>
<path fill="#fbe4e4" stroke="#d03b3b" d="M890.5,-159C890.5,-159 823.5,-159 823.5,-159 817.5,-159 811.5,-153 811.5,-147 811.5,-147 811.5,-135 811.5,-135 811.5,-129 817.5,-123 823.5,-123 823.5,-123 890.5,-123 890.5,-123 896.5,-123 902.5,-129 902.5,-135 902.5,-135 902.5,-147 902.5,-147 902.5,-153 896.5,-159 890.5,-159"/>
<text text-anchor="middle" x="857" y="-144.6" font-family="DejaVu Sans" font-size="10.50" fill="#0b0b0b">reward &#45;1000</text>
<text text-anchor="middle" x="857" y="-132.6" font-family="DejaVu Sans" font-size="10.50" fill="#0b0b0b">(rejected)</text>
</g>
<!-- sim&#45;&gt;reject -->
<g id="edge7" class="edge">
<title>sim&#45;&gt;reject</title>
<path fill="none" stroke="#898781" stroke-width="1.1" stroke-dasharray="5,2" d="M549.36,-130C549.36,-130 804.46,-130 804.46,-130"/>
<polygon fill="#898781" stroke="#898781" stroke-width="1.1" points="804.46,-132.45 811.46,-130 804.46,-127.55 804.46,-132.45"/>
<text text-anchor="middle" x="670.41" y="-122.8" font-family="DejaVu Sans" font-size="9.00" fill="#52514e">fail</text>
</g>
<!-- orfs -->
<g id="node7" class="node">
<title>orfs</title>
<path fill="#ffffff" stroke="#c3c2b7" d="M932,-98C932,-98 782,-98 782,-98 776,-98 770,-92 770,-86 770,-86 770,-62 770,-62 770,-56 776,-50 782,-50 782,-50 932,-50 932,-50 938,-50 944,-56 944,-62 944,-62 944,-86 944,-86 944,-92 938,-98 932,-98"/>
<text text-anchor="middle" x="857" y="-83.6" font-family="DejaVu Sans" font-size="10.50" fill="#0b0b0b">OpenROAD flow (Nangate45)</text>
<text text-anchor="middle" x="857" y="-71.6" font-family="DejaVu Sans" font-size="10.50" fill="#0b0b0b">synth &gt; floorplan &gt; place &gt;</text>
<text text-anchor="middle" x="857" y="-59.6" font-family="DejaVu Sans" font-size="10.50" fill="#0b0b0b">CTS &gt; route &gt; GDS</text>
</g>
<!-- formal&#45;&gt;orfs -->
<g id="edge6" class="edge">
<title>formal&#45;&gt;orfs</title>
<path fill="none" stroke="#898781" stroke-width="1.1" d="M738.12,-82.5C738.12,-82.5 762.87,-82.5 762.87,-82.5"/>
<polygon fill="#898781" stroke="#898781" stroke-width="1.1" points="762.87,-84.95 769.87,-82.5 762.87,-80.05 762.87,-84.95"/>
<text text-anchor="middle" x="766.5" y="-75.3" font-family="DejaVu Sans" font-size="9.00" fill="#52514e">proven</text>
</g>
<!-- formal&#45;&gt;reject -->
<g id="edge8" class="edge">
<title>formal&#45;&gt;reject</title>
<path fill="none" stroke="#898781" stroke-width="1.1" stroke-dasharray="5,2" d="M738.12,-106.5C793.2,-106.5 857,-106.5 857,-106.5 857,-106.5 857,-115.94 857,-115.94"/>
<polygon fill="#898781" stroke="#898781" stroke-width="1.1" points="854.55,-115.94 857,-122.94 859.45,-115.94 854.55,-115.94"/>
<text text-anchor="middle" x="795.78" y="-109.3" font-family="DejaVu Sans" font-size="9.00" fill="#52514e">fail</text>
</g>
<!-- metrics -->
<g id="node9" class="node">
<title>metrics</title>
<path fill="#ffffff" stroke="#c3c2b7" d="M1087,-98C1087,-98 988,-98 988,-98 982,-98 976,-92 976,-86 976,-86 976,-62 976,-62 976,-56 982,-50 988,-50 988,-50 1087,-50 1087,-50 1093,-50 1099,-56 1099,-62 1099,-62 1099,-86 1099,-86 1099,-92 1093,-98 1087,-98"/>
<text text-anchor="middle" x="1037.5" y="-83.6" font-family="DejaVu Sans" font-size="10.50" fill="#0b0b0b">Metrics</text>
<text text-anchor="middle" x="1037.5" y="-71.6" font-family="DejaVu Sans" font-size="10.50" fill="#0b0b0b">area, WNS, power</text>
<text text-anchor="middle" x="1037.5" y="-59.6" font-family="DejaVu Sans" font-size="10.50" fill="#0b0b0b">+ per&#45;stage proxies</text>
</g>
<!-- orfs&#45;&gt;metrics -->
<g id="edge9" class="edge">
<title>orfs&#45;&gt;metrics</title>
<path fill="none" stroke="#898781" stroke-width="1.1" d="M944.08,-74C944.08,-74 968.83,-74 968.83,-74"/>
<polygon fill="#898781" stroke="#898781" stroke-width="1.1" points="968.83,-76.45 975.83,-74 968.83,-71.55 968.83,-76.45"/>
</g>
<!-- reward -->
<g id="node10" class="node">
<title>reward</title>
<path fill="#cde2fb" stroke="#2a78d6" d="M1304,-92C1304,-92 1143,-92 1143,-92 1137,-92 1131,-86 1131,-80 1131,-80 1131,-68 1131,-68 1131,-62 1137,-56 1143,-56 1143,-56 1304,-56 1304,-56 1310,-56 1316,-62 1316,-68 1316,-68 1316,-80 1316,-80 1316,-86 1310,-92 1304,-92"/>
<text text-anchor="middle" x="1223.5" y="-77.6" font-family="DejaVu Sans" font-size="10.50" fill="#0b0b0b">reward = 10*WNS &#45; 0.001*area</text>
<text text-anchor="middle" x="1223.5" y="-65.6" font-family="DejaVu Sans" font-size="10.50" fill="#0b0b0b">fingerprinted, cached, logged</text>
</g>
<!-- metrics&#45;&gt;reward -->
<g id="edge10" class="edge">
<title>metrics&#45;&gt;reward</title>
<path fill="none" stroke="#898781" stroke-width="1.1" d="M1099.18,-74C1099.18,-74 1123.76,-74 1123.76,-74"/>
<polygon fill="#898781" stroke="#898781" stroke-width="1.1" points="1123.76,-76.45 1130.76,-74 1123.76,-71.55 1123.76,-76.45"/>
</g>
<!-- reward&#45;&gt;agents -->
<g id="edge11" class="edge">
<title>reward:n&#45;&gt;agents:n</title>
<path fill="none" stroke="#898781" stroke-width="1.1" stroke-dasharray="5,2" d="M1224,-92C1224,-92 1224,-186 1224,-186 1224,-186 566.28,-186 276.2,-186"/>
<polygon fill="#898781" stroke="#898781" stroke-width="1.1" points="276,-183.55 269,-186 276,-188.45 276,-183.55"/>
<text text-anchor="middle" x="663.1" y="-178.8" font-family="DejaVu Sans" font-size="9.00" fill="#52514e">feedback: score, metrics, failure logs (policy update for RL)</text>
</g>
</g>
</svg>
